<svg xmlns="http://www.w3.org/2000/svg" viewBox="0 0 400 300" preserveAspectRatio="xMidYMid slice">
  <defs>
    <linearGradient id="bg" x1="0" y1="0" x2="0" y2="1">
      <stop offset="0%" stop-color="#f3eeff"/>
      <stop offset="100%" stop-color="#d6c6ff"/>
    </linearGradient>
  </defs>
  <rect width="400" height="300" fill="url(#bg)"/>
  <g fill="#a855f7" opacity="0.18">
    <circle cx="60" cy="60" r="10"/>
    <circle cx="120" cy="60" r="10"/>
    <circle cx="180" cy="60" r="10"/>
    <circle cx="240" cy="60" r="10"/>
    <circle cx="300" cy="60" r="10"/>
    <circle cx="360" cy="60" r="10"/>
    <circle cx="60" cy="240" r="10"/>
    <circle cx="120" cy="240" r="10"/>
    <circle cx="180" cy="240" r="10"/>
    <circle cx="240" cy="240" r="10"/>
    <circle cx="300" cy="240" r="10"/>
    <circle cx="360" cy="240" r="10"/>
  </g>
  <rect x="150" y="140" width="100" height="80" rx="14" fill="#ffffff" stroke="#a855f7" stroke-width="6"/>
  <circle cx="200" cy="178" r="12" fill="#ff6b35"/>
  <rect x="195" y="178" width="10" height="26" fill="#ff6b35"/>
  <path d="M170 140 v-16 a30 30 0 0 1 60 0 v16" fill="none" stroke="#a855f7" stroke-width="6"/>
</svg>
