<svg width="124" height="24" viewBox="0 0 124 24" fill="none" xmlns="http://www.w3.org/2000/svg">
<g filter="url(#filter0_d_3596_31311)">
<path d="M15.7043 11.9959H14.0103C13.5044 11.9959 13.0944 12.3931 13.0944 12.8833V15.2656C13.0944 15.7559 12.6845 16.1531 12.1786 16.1531H5.43932C4.93339 16.1531 4.52344 16.5503 4.52344 17.0405V18.6819C4.52344 19.1721 4.93339 19.5693 5.43932 19.5693H12.5686C13.0746 19.5693 13.4787 19.1721 13.4787 18.6819V17.365C13.4787 16.8748 13.8886 16.5271 14.3946 16.5271H15.704C16.2099 16.5271 16.6198 16.1298 16.6198 15.6396V12.873C16.6198 12.3828 16.2099 11.9959 15.704 11.9959H15.7043Z" fill="#1A1A1A"/>
<path d="M4.52575 8.7343C4.52575 8.24409 4.9357 7.84687 5.44163 7.84687H12.1767C12.6827 7.84687 13.0926 7.44965 13.0926 6.95943V5.31808C13.0926 4.82787 12.6827 4.43065 12.1767 4.43065H5.05122C4.54528 4.43065 4.13533 4.82787 4.13533 5.31808V6.58281C4.13533 7.07302 3.72538 7.47024 3.21944 7.47024H1.91589C1.40995 7.47024 1 7.86746 1 8.35767V11.1273C1 11.6175 1.41167 11.9948 1.9176 11.9948H3.61158C4.11751 11.9948 4.52746 11.5975 4.52746 11.1073L4.52575 8.73463V8.7343Z" fill="#1A1A1A"/>
<path d="M8.01513 10.2701H9.64227C10.1725 10.2701 10.6027 10.6872 10.6027 11.2007V12.7773C10.6027 13.2911 10.1722 13.7079 9.64227 13.7079H8.01513C7.48487 13.7079 7.05469 13.2907 7.05469 12.7773V11.2007C7.05469 10.6869 7.48521 10.2701 8.01513 10.2701Z" fill="#1A1A1A"/>
</g>
<path d="M30.9738 11.4786C30.3703 11.2288 29.6332 11.0206 28.7625 10.8535H28.744C27.8981 10.6998 27.2635 10.5586 26.8405 10.4301C26.4176 10.3023 26.0849 10.1292 25.8422 9.91098C25.5995 9.69319 25.4785 9.39186 25.4785 9.007C25.4785 8.44287 25.6838 8.01339 26.0942 7.71854C26.5049 7.4237 27.0459 7.27609 27.7175 7.27609C28.4517 7.27609 29.0452 7.46833 29.4996 7.85319C29.9074 8.19876 30.1571 8.63778 30.2489 9.16949C30.267 9.27553 30.354 9.35372 30.4583 9.35486L32.5231 9.37088C32.6497 9.37203 32.7511 9.25989 32.7385 9.12982C32.6693 8.41846 32.4417 7.77156 32.0561 7.1895C31.6269 6.54222 31.036 6.03874 30.2833 5.67944C29.5307 5.32051 28.6755 5.14086 27.7175 5.14086C26.8095 5.14086 25.9917 5.31403 25.2638 5.66036C24.5364 6.0067 23.9702 6.4873 23.5658 7.10292C23.1613 7.71854 22.9593 8.41083 22.9593 9.18017C22.9593 10.0266 23.1395 10.7063 23.5003 11.2189C23.861 11.7319 24.3336 12.1198 24.9182 12.3826C25.5029 12.6454 26.2056 12.8537 27.0267 13.0078L27.1199 13.0269C27.9902 13.1935 28.6407 13.3412 29.07 13.4693C29.4992 13.5979 29.8378 13.7771 30.0868 14.0079C30.3355 14.2386 30.4598 14.5529 30.4598 14.9504C30.4598 15.5149 30.236 15.957 29.7882 16.2774C29.3405 16.5982 28.7617 16.7584 28.0528 16.7584C27.2065 16.7584 26.5227 16.5371 26.0002 16.0947C25.5247 15.6923 25.245 15.1754 25.161 14.5446C25.1465 14.4355 25.0585 14.3527 24.9519 14.3512L22.8897 14.3191C22.7643 14.3172 22.6629 14.4263 22.6725 14.5552C22.731 15.3311 22.9663 16.0302 23.3785 16.6527C23.8326 17.3389 24.4575 17.8775 25.2538 18.2684C26.0498 18.6598 26.9641 18.8551 27.9969 18.8551C28.9545 18.8551 29.813 18.6758 30.5719 18.3165C31.3305 17.9576 31.9248 17.4606 32.354 16.8259C32.7832 16.1912 32.9979 15.4764 32.9979 14.6811C32.9979 13.8347 32.811 13.152 32.438 12.6325C32.065 12.1133 31.5766 11.7285 30.9734 11.4783L30.9738 11.4786Z" fill="#1A1A1A"/>
<path d="M43.6555 16.6621H43.3332C43.1467 16.6621 43.0001 16.611 42.8947 16.508C42.7888 16.4058 42.7359 16.2388 42.7359 16.008V12.3341C42.7359 11.1673 42.3751 10.2793 41.654 9.67021C40.9324 9.06145 40.0828 8.75097 38.7518 8.75097C37.4952 8.75097 36.5135 9.03247 35.7423 9.58363C35.0393 10.0863 34.6156 10.7748 34.4705 11.6502C34.448 11.7864 34.5479 11.9111 34.6814 11.9111H36.5779C36.673 11.9111 36.7581 11.8466 36.7832 11.752C36.8698 11.4282 37.0608 11.1639 37.356 10.9591C37.6979 10.7218 38.1042 10.6032 38.6393 10.6032C39.6484 10.6032 40.3659 11.2444 40.3659 12.1995V12.4981C40.3659 12.6202 40.27 12.719 40.1516 12.719H38.4339C37.0408 12.719 35.9832 13.0012 35.262 13.5653C34.5405 14.1299 34.1797 14.9312 34.1797 15.9695C34.1797 16.8673 34.5094 17.5726 35.1688 18.0852C35.6635 18.4697 36.2548 18.6917 36.8635 18.789C37.3287 18.8634 37.8064 18.8904 38.2726 18.8134C38.761 18.7329 39.1577 18.5254 39.5548 18.2294C39.9115 17.964 40.209 17.6237 40.4806 17.2087C40.6131 16.9741 40.9605 17.0684 40.9605 17.3396V17.6657C40.9601 18.2584 41.426 18.739 42.001 18.739H43.6555C43.7739 18.739 43.8697 18.6402 43.8697 18.5182V16.8826C43.8697 16.7606 43.7739 16.6618 43.6555 16.6618V16.6621ZM40.3662 14.681C40.3662 15.1555 40.2697 15.569 40.0769 15.9214C39.6728 16.6606 38.9498 17.0466 38.1361 17.0466C37.6632 17.0466 37.2839 16.9314 36.9978 16.7007C36.7114 16.4699 36.5686 16.1621 36.5686 15.7772C36.5686 15.3416 36.7274 15.0048 37.0445 14.7676C37.3616 14.5307 37.8123 14.4117 38.3973 14.4117H40.152C40.2704 14.4117 40.3662 14.5105 40.3662 14.6326V14.681Z" fill="#1A1A1A"/>
<path d="M50.5687 5.28048H48.1009C46.7992 5.28048 45.7438 6.36831 45.7438 7.71017V8.77778C45.7438 8.89984 45.648 8.99863 45.5296 8.99863H44.1205C44.0021 8.99863 43.9062 9.09742 43.9062 9.21947V10.8741C43.9062 10.9962 44.0021 11.0949 44.1205 11.0949H45.5296C45.648 11.0949 45.7438 11.1937 45.7438 11.3158V18.5179C45.7438 18.6399 45.8397 18.7387 45.9581 18.7387H47.8808C47.9992 18.7387 48.095 18.6399 48.095 18.5179V11.3158C48.095 11.1937 48.1908 11.0949 48.3093 11.0949H50.5498C50.6682 11.0949 50.764 10.9962 50.764 10.8741V9.21947C50.764 9.09742 50.6682 8.99863 50.5498 8.99863H48.3093C48.1908 8.99863 48.095 8.89984 48.095 8.77778V7.81849C48.095 7.57438 48.2871 7.3768 48.5235 7.3768H50.5683C50.6867 7.3768 50.7825 7.27801 50.7825 7.15595V5.50133C50.7825 5.37927 50.6867 5.28048 50.5683 5.28048H50.5687Z" fill="#1A1A1A"/>
<path d="M59.9893 10.9884C59.5726 10.2706 59.0032 9.71906 58.282 9.3342C57.5604 8.94972 56.7267 8.75176 55.7817 8.75176C54.8366 8.75176 54.0211 8.96574 53.2999 9.38226C52.5783 9.79916 52.0185 10.3888 51.6207 11.1517C51.2225 11.9149 51.0234 12.809 51.0234 13.835C51.0234 14.8611 51.2288 15.717 51.6392 16.4798C52.0499 17.2427 52.6375 17.8293 53.4024 18.2398C54.1672 18.6502 55.066 18.8554 56.0988 18.8554C56.8947 18.8554 57.607 18.7047 58.2354 18.4034C58.8633 18.1024 59.3702 17.6886 59.7558 17.163C60.0859 16.7129 60.3112 16.2201 60.4319 15.685C60.4633 15.5461 60.3616 15.4126 60.2232 15.4126H58.2916C58.1991 15.4126 58.1181 15.4744 58.0885 15.5648C57.9523 15.9794 57.7121 16.3071 57.3676 16.5474C56.9817 16.8166 56.5029 16.9513 55.9308 16.9513C55.4579 16.9513 55.0446 16.8487 54.6901 16.6435C54.3356 16.4387 54.0558 16.1499 53.8505 15.778C53.7694 15.6312 53.7032 15.4759 53.6503 15.3161C53.5937 15.1445 53.553 14.9675 53.5248 14.7882C53.5152 14.7257 53.5063 14.6624 53.4989 14.599C53.4845 14.4686 53.5848 14.3545 53.7121 14.3545H60.373C60.4811 14.3545 60.5736 14.2722 60.5858 14.1612C60.595 14.0799 60.6013 13.9971 60.6047 13.9121C60.611 13.7584 60.6139 13.6172 60.6139 13.4891C60.6139 12.5405 60.4056 11.7071 59.9889 10.9888L59.9893 10.9884ZM57.9878 12.6808H53.8161C53.6792 12.6808 53.5759 12.55 53.6063 12.4123C53.6729 12.1106 53.7883 11.8383 53.9526 11.5942C54.1639 11.2802 54.4377 11.0396 54.7737 10.8729C55.1097 10.7062 55.4764 10.6227 55.8745 10.6227C56.5214 10.6227 57.0564 10.8023 57.4794 11.1612C57.8424 11.4694 58.0814 11.8859 58.1972 12.4112C58.2276 12.5492 58.1251 12.6808 57.9878 12.6808Z" fill="#1A1A1A"/>
<path d="M63.1414 4.24103V19.759C63.1414 20.1305 63.4415 20.4319 63.8116 20.4319H64.8439C65.3721 20.4319 65.8011 20.8618 65.8011 21.3928V22.4284C65.8011 22.7999 66.1012 23.1013 66.4713 23.1013H68.4836C68.8536 23.1013 69.1538 22.7999 69.1538 22.4284V20.9858C69.1538 20.6143 68.8536 20.3129 68.4836 20.3129H66.876C66.3477 20.3129 65.9188 19.8831 65.9188 19.352V4.64728C65.9188 4.11694 66.347 3.68631 66.876 3.68631H68.4828C68.8529 3.68631 69.1531 3.38495 69.1531 3.01342V1.57161C69.1531 1.20007 68.8529 0.898712 68.4828 0.898712H66.4706C66.1005 0.898712 65.8003 1.20007 65.8003 1.57161V2.60717C65.8003 3.13751 65.3721 3.56813 64.8431 3.56813H63.8109C63.4408 3.56813 63.1406 3.8695 63.1406 4.24103H63.1414Z" fill="#1A1A1A"/>
<path d="M69.6084 7.63341V6.85833H72.1274L73.3707 13.4465C73.516 14.2377 73.6291 14.9804 73.6937 15.9654H74.0489C74.1296 14.9804 74.275 14.2054 74.4364 13.4465L75.7605 7.40734H78.8931L80.1687 13.4303C80.3302 14.1892 80.4917 14.9804 80.5724 15.9654H80.9115C80.9761 14.9804 81.1053 14.2538 81.2506 13.4465L82.494 6.85833H84.9806V7.63341L82.7846 18H79.0223L77.8758 12.6391C77.6982 11.8317 77.569 11.1374 77.4721 10.1201H77.133C77.0362 11.1535 76.907 11.8317 76.7294 12.6391L75.5345 18H71.8206L69.6084 7.63341ZM92.8476 16.1269H93.1867V18H92.1532C91.3782 18 90.7484 17.7093 90.5708 16.7567H90.3447C89.9249 17.6609 88.9238 18.2907 87.5835 18.2907C86.098 18.2907 84.9354 17.5317 84.9354 16.1431C84.9354 15.0127 85.6781 14.2215 86.9861 13.8663L89.8926 13.0589C89.8119 12.413 89.3597 12.0578 88.73 12.0578C88.1002 12.0578 87.6158 12.413 87.4543 13.0912H85.2906V12.4776C85.7589 11.1374 86.9861 10.2493 88.7946 10.2493C90.9422 10.2493 92.3308 11.4926 92.3308 13.3819V15.5295C92.3308 15.917 92.4762 16.1269 92.8476 16.1269ZM88.3102 16.6436C89.3436 16.6436 89.9087 15.804 89.9087 14.9643V14.6091L88.2294 15.0935C87.6158 15.2711 87.3413 15.5295 87.3413 15.9331C87.3413 16.4014 87.7127 16.6436 88.3102 16.6436ZM94.2804 18V6.85833H96.7348V18H94.2804ZM98.4434 18V6.85833H100.898V18H98.4434ZM110.083 14.2377V14.8028H104.479C104.641 15.8524 105.287 16.4983 106.24 16.4983C106.966 16.4983 107.515 16.1108 107.725 15.4487H109.889V16.0785C109.421 17.2734 108.177 18.2907 106.256 18.2907C103.817 18.2907 102.154 16.5952 102.154 14.27C102.154 11.9286 103.817 10.2493 106.223 10.2493C108.452 10.2493 110.083 11.7187 110.083 14.2377ZM106.207 11.9286C105.432 11.9286 104.819 12.4453 104.576 13.3173H107.774C107.58 12.4453 107.015 11.9286 106.207 11.9286ZM114.896 16.0623H116.301V18H114.25C112.7 18 111.876 17.2734 111.876 15.7232V12.4776H110.585V10.5399H111.876V7.95635H114.298V10.5399H116.204V12.4776H114.298V15.5133C114.298 15.9008 114.492 16.0623 114.896 16.0623Z" fill="#1A1A1A"/>
<path d="M123.163 19.759L123.163 4.24103C123.163 3.86949 122.863 3.56813 122.493 3.56813L121.461 3.56813C120.933 3.56813 120.504 3.13825 120.504 2.60717L120.504 1.5716C120.504 1.20007 120.203 0.89871 119.833 0.89871L117.821 0.89871C117.451 0.89871 117.151 1.20007 117.151 1.5716L117.151 3.01415C117.151 3.38569 117.451 3.68705 117.821 3.68705L119.429 3.68705C119.957 3.68705 120.386 4.11694 120.386 4.64801L120.386 19.3527C120.386 19.8831 119.958 20.3137 119.429 20.3137L117.822 20.3137C117.452 20.3137 117.152 20.615 117.152 20.9866L117.152 22.4284C117.152 22.7999 117.452 23.1013 117.822 23.1013L119.834 23.1013C120.204 23.1013 120.504 22.7999 120.504 22.4284L120.504 21.3928C120.504 20.8625 120.933 20.4319 121.462 20.4319L122.494 20.4319C122.864 20.4319 123.164 20.1305 123.164 19.759L123.163 19.759Z" fill="#1A1A1A"/>
<defs>
<filter id="filter0_d_3596_31311" x="0.621548" y="4.43065" width="16.3741" height="15.8956" filterUnits="userSpaceOnUse" color-interpolation-filters="sRGB">
<feFlood flood-opacity="0" result="BackgroundImageFix"/>
<feColorMatrix in="SourceAlpha" type="matrix" values="0 0 0 0 0 0 0 0 0 0 0 0 0 0 0 0 0 0 127 0" result="hardAlpha"/>
<feOffset dy="0.378452"/>
<feGaussianBlur stdDeviation="0.189226"/>
<feComposite in2="hardAlpha" operator="out"/>
<feColorMatrix type="matrix" values="0 0 0 0 0 0 0 0 0 0 0 0 0 0 0 0 0 0 0.06 0"/>
<feBlend mode="normal" in2="BackgroundImageFix" result="effect1_dropShadow_3596_31311"/>
<feBlend mode="normal" in="SourceGraphic" in2="effect1_dropShadow_3596_31311" result="shape"/>
</filter>
</defs>
</svg>
