<svg width="36" height="36" viewBox="0 0 36 36" fill="none" xmlns="http://www.w3.org/2000/svg">
<g clip-path="url(#clip0_1782_1830)">
<g clip-path="url(#clip1_1782_1830)">
<rect width="36" height="36" fill="url(#paint0_linear_1782_1830)"></rect>
<rect width="36" height="36" fill="#7132F5"></rect>
<rect width="36" height="36" fill="url(#paint1_linear_1782_1830)" fill-opacity="0.64"></rect>
<rect width="36" height="36" fill="url(#paint2_linear_1782_1830)" fill-opacity="0.4"></rect>
<path fill-rule="evenodd" clip-rule="evenodd" d="M7.94531 19.4426V23.7963C7.94531 24.598 8.5865 25.2468 9.37497 25.2468C10.1643 25.2468 10.8085 24.598 10.8085 23.7963V19.4426C10.8085 18.6397 11.4464 17.9898 12.239 17.9898C13.0289 17.9898 13.6695 18.6397 13.6695 19.4426V23.7963C13.6695 24.598 14.3107 25.2468 15.1 25.2468C15.8921 25.2468 16.533 24.598 16.533 23.7963V19.4426C16.533 18.6397 17.1736 17.9898 17.9632 17.9898C18.7561 17.9898 19.3973 18.6397 19.3973 19.4426V23.7963C19.3973 24.598 20.0382 25.2468 20.8267 25.2468C21.616 25.2468 22.2571 24.598 22.2571 23.7963V19.4426C22.2571 18.6397 22.8981 17.9898 23.6907 17.9898C24.4803 17.9898 25.1212 18.6397 25.1212 19.4426V23.7963C25.1212 24.598 25.7624 25.2468 26.5539 25.2468C27.3435 25.2468 27.9844 24.598 27.9844 23.7963V19.4426C27.9844 13.8312 23.4974 9.28125 17.9632 9.28125C12.4292 9.28125 7.94531 13.8312 7.94531 19.4426Z" fill="white"></path>
</g>
</g>
<defs>
<linearGradient id="paint0_linear_1782_1830" x1="24.3281" y1="1.1809e-06" x2="12.6563" y2="36.5625" gradientUnits="userSpaceOnUse">
<stop offset="0.483711" stop-color="#EB5073"></stop>
<stop offset="0.784998" stop-color="#EF8A60"></stop>
</linearGradient>
<linearGradient id="paint1_linear_1782_1830" x1="15.2825" y1="29.5568" x2="0" y2="0" gradientUnits="userSpaceOnUse">
<stop stop-color="#F4AAFF" stop-opacity="0"></stop>
<stop offset="1" stop-color="#F000FB" stop-opacity="0.4"></stop>
</linearGradient>
<linearGradient id="paint2_linear_1782_1830" x1="13.1347" y1="20.3815" x2="-2.14896e-07" y2="-1.72403" gradientUnits="userSpaceOnUse">
<stop stop-color="#F7D2FE" stop-opacity="0"></stop>
<stop offset="1" stop-color="#F7D2FE"></stop>
</linearGradient>
<clipPath id="clip0_1782_1830">
<rect width="36" height="36" fill="white"></rect>
</clipPath>
<clipPath id="clip1_1782_1830">
<rect width="36" height="36" fill="white"></rect>
</clipPath>
</defs>
</svg>
